<?xml version="1.0" standalone="no"?><!DOCTYPE svg PUBLIC "-//W3C//DTD SVG 1.1//EN" "http://www.w3.org/Graphics/SVG/1.1/DTD/svg11.dtd"><svg t="1497164844928" class="icon" style="" viewBox="0 0 1024 1024" version="1.1" xmlns="http://www.w3.org/2000/svg" p-id="4400" xmlns:xlink="http://www.w3.org/1999/xlink" width="32" height="32"><defs><style type="text/css"></style></defs><path d="M912 344.752l-85.376 0C797.344 139.728 677.392 0 512 0 346.624 0 226.656 139.728 197.376 344.752L112 344.752c-35.344 0-64 28.656-64 64L48 960c0 35.344 28.656 64 64 64l800 0c35.344 0 64-28.656 64-64L976 408.752C976 373.408 947.344 344.752 912 344.752zM512 55.744c138.768 0 220.544 118.448 249.424 289.008L262.576 344.752C291.456 174.208 373.232 55.744 512 55.744zM416 855.6l47.36-265.712C444.4 575.248 432 552.56 432 526.784c0-44.192 35.808-80 80-80s80 35.808 80 80c0 25.776-12.4 48.464-31.36 63.088L608 855.6 416 855.6z" p-id="4401"></path></svg>